<svg width="256" height="246" viewBox="0 0 256 246" fill="none" xmlns="http://www.w3.org/2000/svg">
<path fill-rule="evenodd" clip-rule="evenodd" d="M64.6957 67.5424C55.8591 67.5424 48.6957 74.7058 48.6957 83.5423V84.8983C48.6957 87.6737 49.4023 90.2841 50.6456 92.5593H43.8261C34.9896 92.5593 27.8261 99.7227 27.8261 108.559V109.915C27.8261 117.054 32.5012 123.101 38.9567 125.161L38.9565 125.237V126.593C38.9565 135.43 46.12 142.593 54.9565 142.593H62.6205C68.7612 142.593 73.7392 147.571 73.7392 153.712C73.7392 159.853 68.7612 164.83 62.6205 164.83H64.6799C55.8506 164.839 48.6957 171.999 48.6957 180.83V182.186C48.6957 191.023 55.8591 198.186 64.6956 198.186H110.671C112.735 204.636 118.779 209.305 125.913 209.305H157.913C165.047 209.305 171.091 204.636 173.155 198.186H173.217C182.054 198.186 189.217 191.023 189.217 182.186V180.83C189.217 179.128 188.952 177.488 188.459 175.949H213.565C222.402 175.949 229.565 168.786 229.565 159.949V158.593C229.565 149.757 222.402 142.593 213.565 142.593H212.111C212.604 141.054 212.87 139.414 212.87 137.712V136.356C212.87 127.519 205.706 120.356 196.87 120.356H149.503C147.93 115.441 144.046 111.561 139.13 109.992L139.13 109.915V108.559C139.13 105.784 138.424 103.174 137.181 100.898H144C152.837 100.898 160 93.7349 160 84.8983V83.5424C160 74.7058 152.837 67.5424 144 67.5424H64.6957ZM102.324 142.593H93.2292C99.3699 142.593 104.348 147.571 104.348 153.712C104.348 159.848 99.377 164.823 93.2424 164.83H119.019C118.527 163.292 118.261 161.651 118.261 159.949V158.593C118.261 156.891 118.527 155.251 119.019 153.712H117.565C110.431 153.712 104.387 149.043 102.324 142.593Z" fill="#202020"/>
<path d="M152.169 78.7455L152.192 78.7656L152.216 78.7853L168.515 92.4474C169.532 93.3 170.169 94.5217 170.285 95.8437L176.573 167.643C176.814 170.394 174.779 172.819 172.028 173.059L84.0165 180.751C81.2656 180.992 78.8402 178.957 78.5993 176.206L69.6881 74.4586C69.4472 71.7077 71.482 69.2828 74.2329 69.0424L132.862 63.9184C134.218 63.7999 135.563 64.2389 136.588 65.1341L152.169 78.7455Z" fill="#2B2B2B" stroke="#484848" stroke-width="6"/>
<path d="M173.837 68.9262L173.858 68.9483L173.88 68.9699L188.925 83.9992C189.864 84.937 190.391 86.2096 190.391 87.5366V159.61C190.391 162.372 188.153 164.61 185.391 164.61H97.0435C94.282 164.61 92.0435 162.372 92.0435 159.61V57.4746C92.0435 54.7132 94.2821 52.4746 97.0435 52.4746H155.897C157.258 52.4746 158.559 53.0291 159.502 54.01L173.837 68.9262Z" fill="#323232" stroke="#484848" stroke-width="6"/>
<path d="M165.217 87H192L157.217 52.2543V79C157.217 83.4183 160.799 87 165.217 87Z" fill="#484848"/>
</svg>
