<svg width="24" height="24" viewBox="0 0 24 24" fill="none" xmlns="http://www.w3.org/2000/svg">
<path d="M23.25 18.5H7.5V17.75C7.5 17.3375 7.1625 17 6.75 17H5.25C4.8375 17 4.5 17.3375 4.5 17.75V18.5H0.75C0.3375 18.5 0 18.8375 0 19.25V20.75C0 21.1625 0.3375 21.5 0.75 21.5H4.5V22.25C4.5 22.6625 4.8375 23 5.25 23H6.75C7.1625 23 7.5 22.6625 7.5 22.25V21.5H23.25C23.6625 21.5 24 21.1625 24 20.75V19.25C24 18.8375 23.6625 18.5 23.25 18.5ZM23.25 11H19.5V10.25C19.5 9.8375 19.1625 9.5 18.75 9.5H17.25C16.8375 9.5 16.5 9.8375 16.5 10.25V11H0.75C0.3375 11 0 11.3375 0 11.75V13.25C0 13.6625 0.3375 14 0.75 14H16.5V14.75C16.5 15.1625 16.8375 15.5 17.25 15.5H18.75C19.1625 15.5 19.5 15.1625 19.5 14.75V14H23.25C23.6625 14 24 13.6625 24 13.25V11.75C24 11.3375 23.6625 11 23.25 11ZM23.25 3.5H13.5V2.75C13.5 2.3375 13.1625 2 12.75 2H11.25C10.8375 2 10.5 2.3375 10.5 2.75V3.5H0.75C0.3375 3.5 0 3.8375 0 4.25V5.75C0 6.1625 0.3375 6.5 0.75 6.5H10.5V7.25C10.5 7.6625 10.8375 8 11.25 8H12.75C13.1625 8 13.5 7.6625 13.5 7.25V6.5H23.25C23.6625 6.5 24 6.1625 24 5.75V4.25C24 3.8375 23.6625 3.5 23.25 3.5Z" fill="white"/>
</svg>
