<svg width="24" height="25" viewBox="0 0 24 25" fill="none" xmlns="http://www.w3.org/2000/svg">
<path d="M23.6736 20.752L18.9998 16.0783C18.7889 15.8673 18.5029 15.7501 18.2029 15.7501H17.4388C18.7326 14.0953 19.5014 12.0139 19.5014 9.74968C19.5014 4.36334 15.137 -0.0010376 9.75071 -0.0010376C4.36438 -0.0010376 0 4.36334 0 9.74968C0 15.136 4.36438 19.5004 9.75071 19.5004C12.0149 19.5004 14.0963 18.7316 15.7512 17.4377V18.2019C15.7512 18.5019 15.8683 18.7878 16.0793 18.9988L20.7531 23.6726C21.1937 24.1132 21.9063 24.1132 22.3423 23.6726L23.6689 22.3459C24.1096 21.9053 24.1096 21.1927 23.6736 20.752ZM9.75071 15.7501C6.43641 15.7501 3.75027 13.0687 3.75027 9.74968C3.75027 6.43537 6.43172 3.74924 9.75071 3.74924C13.065 3.74924 15.7512 6.43068 15.7512 9.74968C15.7512 13.064 13.0697 15.7501 9.75071 15.7501Z" fill="white"/>
</svg>
