<svg width="24" height="24" viewBox="0 0 24 24" fill="none" xmlns="http://www.w3.org/2000/svg">
<path d="M0.857143 4.85714H23.1429C23.6163 4.85714 24 4.47341 24 4V1.85714C24 1.38373 23.6163 1 23.1429 1H0.857143C0.383732 1 0 1.38373 0 1.85714V4C0 4.47341 0.383732 4.85714 0.857143 4.85714ZM0.857143 13.4286H23.1429C23.6163 13.4286 24 13.0448 24 12.5714V10.4286C24 9.95516 23.6163 9.57143 23.1429 9.57143H0.857143C0.383732 9.57143 0 9.95516 0 10.4286V12.5714C0 13.0448 0.383732 13.4286 0.857143 13.4286ZM0.857143 22H23.1429C23.6163 22 24 21.6163 24 21.1429V19C24 18.5266 23.6163 18.1429 23.1429 18.1429H0.857143C0.383732 18.1429 0 18.5266 0 19V21.1429C0 21.6163 0.383732 22 0.857143 22Z" fill="white"/>
</svg>
