<svg width="24" height="24" viewBox="0 0 24 24" fill="none" xmlns="http://www.w3.org/2000/svg">
<path d="M15.4839 12.4839C15.4839 14.4097 13.9258 15.9677 12 15.9677C10.0742 15.9677 8.51613 14.4097 8.51613 12.4839C8.51613 10.5581 10.0742 9 12 9C13.9258 9 15.4839 10.5581 15.4839 12.4839ZM20.5161 9C18.5903 9 17.0323 10.5581 17.0323 12.4839C17.0323 14.4097 18.5903 15.9677 20.5161 15.9677C22.4419 15.9677 24 14.4097 24 12.4839C24 10.5581 22.4419 9 20.5161 9ZM3.48387 9C1.55806 9 0 10.5581 0 12.4839C0 14.4097 1.55806 15.9677 3.48387 15.9677C5.40968 15.9677 6.96774 14.4097 6.96774 12.4839C6.96774 10.5581 5.40968 9 3.48387 9Z" fill="white"/>
</svg>
