<svg width="24" height="24" viewBox="0 0 24 24" fill="none" xmlns="http://www.w3.org/2000/svg">
<path d="M21.75 3H2.25C1.00734 3 0 4.00734 0 5.25V18.75C0 19.9927 1.00734 21 2.25 21H21.75C22.9927 21 24 19.9927 24 18.75V5.25C24 4.00734 22.9927 3 21.75 3ZM21.4688 18.75H2.53125C2.45666 18.75 2.38512 18.7204 2.33238 18.6676C2.27963 18.6149 2.25 18.5433 2.25 18.4688V5.53125C2.25 5.45666 2.27963 5.38512 2.33238 5.33238C2.38512 5.27963 2.45666 5.25 2.53125 5.25H21.4688C21.5433 5.25 21.6149 5.27963 21.6676 5.33238C21.7204 5.38512 21.75 5.45666 21.75 5.53125V18.4688C21.75 18.5433 21.7204 18.6149 21.6676 18.6676C21.6149 18.7204 21.5433 18.75 21.4688 18.75V18.75ZM6 7.125C4.96448 7.125 4.125 7.96448 4.125 9C4.125 10.0355 4.96448 10.875 6 10.875C7.03552 10.875 7.875 10.0355 7.875 9C7.875 7.96448 7.03552 7.125 6 7.125ZM4.5 16.5H19.5V12.75L15.3977 8.64773C15.1781 8.42808 14.8219 8.42808 14.6022 8.64773L9 14.25L7.14773 12.3977C6.92808 12.1781 6.57192 12.1781 6.35222 12.3977L4.5 14.25V16.5Z" fill="white"/>
</svg>
