<svg width="24" height="24" viewBox="0 0 24 24" fill="none" xmlns="http://www.w3.org/2000/svg">
<path d="M3.5 21.7498C3.5 22.3466 3.73705 22.9189 4.15901 23.3408C4.58097 23.7628 5.15326 23.9998 5.75 23.9998H19.25C19.8467 23.9998 20.419 23.7628 20.841 23.3408C21.2629 22.9189 21.5 22.3466 21.5 21.7498V5.99982H3.5V21.7498ZM16.25 9.74982C16.25 9.55091 16.329 9.36014 16.4697 9.21949C16.6103 9.07884 16.8011 8.99982 17 8.99982C17.1989 8.99982 17.3897 9.07884 17.5303 9.21949C17.671 9.36014 17.75 9.55091 17.75 9.74982V20.2498C17.75 20.4487 17.671 20.6395 17.5303 20.7801C17.3897 20.9208 17.1989 20.9998 17 20.9998C16.8011 20.9998 16.6103 20.9208 16.4697 20.7801C16.329 20.6395 16.25 20.4487 16.25 20.2498V9.74982ZM11.75 9.74982C11.75 9.55091 11.829 9.36014 11.9697 9.21949C12.1103 9.07884 12.3011 8.99982 12.5 8.99982C12.6989 8.99982 12.8897 9.07884 13.0303 9.21949C13.171 9.36014 13.25 9.55091 13.25 9.74982V20.2498C13.25 20.4487 13.171 20.6395 13.0303 20.7801C12.8897 20.9208 12.6989 20.9998 12.5 20.9998C12.3011 20.9998 12.1103 20.9208 11.9697 20.7801C11.829 20.6395 11.75 20.4487 11.75 20.2498V9.74982ZM7.25 9.74982C7.25 9.55091 7.32902 9.36014 7.46967 9.21949C7.61032 9.07884 7.80109 8.99982 8 8.99982C8.19891 8.99982 8.38968 9.07884 8.53033 9.21949C8.67098 9.36014 8.75 9.55091 8.75 9.74982V20.2498C8.75 20.4487 8.67098 20.6395 8.53033 20.7801C8.38968 20.9208 8.19891 20.9998 8 20.9998C7.80109 20.9998 7.61032 20.9208 7.46967 20.7801C7.32902 20.6395 7.25 20.4487 7.25 20.2498V9.74982ZM22.25 1.49982H16.625L16.1844 0.623262C16.091 0.435863 15.9473 0.278226 15.7692 0.168087C15.5912 0.0579474 15.3859 -0.000325041 15.1766 -0.000174887H9.81875C9.60986 -0.000977881 9.40498 0.0570773 9.22756 0.167339C9.05015 0.277601 8.90738 0.43561 8.81562 0.623262L8.375 1.49982H2.75C2.55109 1.49982 2.36032 1.57884 2.21967 1.71949C2.07902 1.86015 2 2.05091 2 2.24982V3.74982C2 3.94874 2.07902 4.1395 2.21967 4.28015C2.36032 4.42081 2.55109 4.49982 2.75 4.49982H22.25C22.4489 4.49982 22.6397 4.42081 22.7803 4.28015C22.921 4.1395 23 3.94874 23 3.74982V2.24982C23 2.05091 22.921 1.86015 22.7803 1.71949C22.6397 1.57884 22.4489 1.49982 22.25 1.49982V1.49982Z" fill="white"/>
</svg>
