<svg width="24" height="24" viewBox="0 0 24 24" fill="none" xmlns="http://www.w3.org/2000/svg">
<path d="M21.4286 0H2.57143C1.15125 0 0 1.15125 0 2.57143V21.4286C0 22.8488 1.15125 24 2.57143 24H21.4286C22.8488 24 24 22.8488 24 21.4286V2.57143C24 1.15125 22.8488 0 21.4286 0ZM21.4286 21.4286H2.57143V2.57143H21.4286V21.4286ZM19.5073 8.47907L10.2614 17.6507C10.0094 17.9007 9.60236 17.8991 9.35234 17.6471L4.48907 12.7444C4.23905 12.4924 4.24066 12.0853 4.49277 11.8353L5.70986 10.628C5.96191 10.378 6.36895 10.3796 6.61896 10.6317L9.82211 13.8608L17.3945 6.34923C17.6466 6.09921 18.0536 6.10082 18.3036 6.35288L19.5109 7.56991C19.7609 7.82202 19.7593 8.22905 19.5073 8.47907Z" fill="white"/>
</svg>
