<svg width="24" height="24" viewBox="0 0 24 24" fill="none" xmlns="http://www.w3.org/2000/svg">
<path d="M18.8571 11.1429V12.8571C18.8571 13.2107 18.5679 13.5 18.2143 13.5H13.5V18.2143C13.5 18.5679 13.2107 18.8571 12.8571 18.8571H11.1429C10.7893 18.8571 10.5 18.5679 10.5 18.2143V13.5H5.78571C5.43214 13.5 5.14286 13.2107 5.14286 12.8571V11.1429C5.14286 10.7893 5.43214 10.5 5.78571 10.5H10.5V5.78571C10.5 5.43214 10.7893 5.14286 11.1429 5.14286H12.8571C13.2107 5.14286 13.5 5.43214 13.5 5.78571V10.5H18.2143C18.5679 10.5 18.8571 10.7893 18.8571 11.1429ZM24 2.57143V21.4286C24 22.8482 22.8482 24 21.4286 24H2.57143C1.15179 24 0 22.8482 0 21.4286V2.57143C0 1.15179 1.15179 0 2.57143 0H21.4286C22.8482 0 24 1.15179 24 2.57143ZM21.4286 21.1071V2.89286C21.4286 2.71607 21.2839 2.57143 21.1071 2.57143H2.89286C2.71607 2.57143 2.57143 2.71607 2.57143 2.89286V21.1071C2.57143 21.2839 2.71607 21.4286 2.89286 21.4286H21.1071C21.2839 21.4286 21.4286 21.2839 21.4286 21.1071Z" fill="white"/>
</svg>
