<svg width="24" height="24" viewBox="0 0 24 24" fill="none" xmlns="http://www.w3.org/2000/svg">
<path d="M16.775 4.4625L20.5333 8.22083C20.6917 8.37917 20.6917 8.6375 20.5333 8.79583L11.4333 17.8958L7.56667 18.325C7.05 18.3833 6.6125 17.9458 6.67083 17.4292L7.1 13.5625L16.2 4.4625C16.3583 4.30417 16.6167 4.30417 16.775 4.4625V4.4625ZM23.525 3.50833L21.4917 1.475C20.8583 0.841667 19.8292 0.841667 19.1917 1.475L17.7167 2.95C17.5583 3.10833 17.5583 3.36667 17.7167 3.525L21.475 7.28333C21.6333 7.44167 21.8917 7.44167 22.05 7.28333L23.525 5.80833C24.1583 5.17083 24.1583 4.14167 23.525 3.50833V3.50833ZM16 15.4208V19.6625H2.66667V6.32917H12.2417C12.375 6.32917 12.5 6.275 12.5958 6.18333L14.2625 4.51667C14.5792 4.2 14.3542 3.6625 13.9083 3.6625H2C0.895833 3.6625 0 4.55833 0 5.6625V20.3292C0 21.4333 0.895833 22.3292 2 22.3292H16.6667C17.7708 22.3292 18.6667 21.4333 18.6667 20.3292V13.7542C18.6667 13.3083 18.1292 13.0875 17.8125 13.4L16.1458 15.0667C16.0542 15.1625 16 15.2875 16 15.4208Z" fill="white"/>
</svg>
