<svg width="24" height="25" viewBox="0 0 24 25" fill="none" xmlns="http://www.w3.org/2000/svg">
<path d="M12 0.00305176C5.37097 0.00305176 0 5.37402 0 12.0031C0 18.6321 5.37097 24.0031 12 24.0031C18.629 24.0031 24 18.6321 24 12.0031C24 5.37402 18.629 0.00305176 12 0.00305176ZM17.8839 15.1531C18.1113 15.3805 18.1113 15.7482 17.8839 15.9756L15.9677 17.8869C15.7403 18.1143 15.3726 18.1143 15.1452 17.8869L12 14.7127L8.85 17.8869C8.62258 18.1143 8.25484 18.1143 8.02742 17.8869L6.11613 15.9708C5.88871 15.7434 5.88871 15.3756 6.11613 15.1482L9.29032 12.0031L6.11613 8.85305C5.88871 8.62563 5.88871 8.25789 6.11613 8.03047L8.03226 6.11434C8.25968 5.88692 8.62742 5.88692 8.85484 6.11434L12 9.29337L15.15 6.11918C15.3774 5.89176 15.7452 5.89176 15.9726 6.11918L17.8887 8.03531C18.1161 8.26273 18.1161 8.63047 17.8887 8.85789L14.7097 12.0031L17.8839 15.1531Z" fill="white"/>
</svg>
