<svg width="112" height="112" viewBox="0 0 112 112" fill="none" xmlns="http://www.w3.org/2000/svg">
<path fill-rule="evenodd" clip-rule="evenodd" d="M28 16H70V30C70 36.6274 75.3726 42 82 42H96V84C96 90.6274 90.6274 96 84 96H76V51C76 48.2386 73.7614 46 71 46C68.2386 46 66 48.2386 66 51V96H46V51C46 48.2386 43.7614 46 41 46C38.2386 46 36 48.2386 36 51V96H28C21.3726 96 16 90.6274 16 84V28C16 21.3726 21.3726 16 28 16ZM76 30V16L96 36H82H81.9952C78.6837 35.9974 76 33.3121 76 30Z" fill="white"/>
</svg>
